<?xml version="1.0" encoding="iso-8859-1"?>
<!-- Generator: Adobe Illustrator 19.0.0, SVG Export Plug-In . SVG Version: 6.00 Build 0)  -->
<svg version="1.1" id="Capa_1" xmlns="http://www.w3.org/2000/svg" xmlns:xlink="http://www.w3.org/1999/xlink" x="0px" y="0px"
	 viewBox="0 0 512 512" style="enable-background:new 0 0 512 512;" xml:space="preserve">
<g>
	<g>
		<path d="M424.337,272.548c-72.91,0-132.675-57.338-136.582-129.29h8.324c4.142,0,7.5-3.358,7.5-7.5v-24.049
			c0-12.976-10.557-23.532-23.532-23.532c-12.975,0-23.532,10.557-23.532,23.532v24.049c0,4.142,3.358,7.5,7.5,7.5h8.719
			c0.283,5.779,0.897,11.471,1.811,17.064h-59.143v-24.564c0-4.142-3.358-7.5-7.5-7.5c-4.142,0-7.5,3.358-7.5,7.5v128.249
			c-5.889-2.192-11.588-4.778-17.064-7.727V87.145h17.064v16.544c0,4.142,3.358,7.5,7.5,7.5c4.142,0,7.5-3.358,7.5-7.5V87.145
			h32.581c8.556,0,15.516-6.96,15.516-15.516V55.081h8.532c4.142,0,7.5-3.358,7.5-7.5V23.532C279.53,10.557,268.974,0,255.998,0
			s-23.532,10.557-23.532,23.532V47.58c0,4.142,3.358,7.5,7.5,7.5h8.532v16.548c0,0.285-0.231,0.516-0.516,0.516h-48.613V55.081
			h8.532c4.142,0,7.5-3.358,7.5-7.5V23.532C215.401,10.557,204.845,0,191.869,0c-12.976,0-23.532,10.557-23.532,23.532V47.58
			c0,4.142,3.358,7.5,7.5,7.5h8.532v17.064h-48.613c-0.285,0-0.517-0.231-0.517-0.516V55.081h8.533c4.142,0,7.5-3.358,7.5-7.5
			V23.532C151.272,10.557,140.716,0,127.74,0s-23.532,10.557-23.532,23.532V47.58c0,4.142,3.358,7.5,7.5,7.5h8.532v16.548
			c0,8.556,6.961,15.516,15.517,15.516h32.581v73.178h-54.932c-1.016-5.579-1.691-11.274-2.005-17.064h8.324
			c4.142,0,7.5-3.358,7.5-7.5v-24.049c0-12.976-10.557-23.532-23.532-23.532s-23.532,10.557-23.532,23.532v24.049
			c0,4.142,3.358,7.5,7.5,7.5h8.719c2.512,51.38,30.694,96.123,71.959,121.662V497h-16.548c-4.142,0-7.5,3.358-7.5,7.5
			c0,4.142,3.358,7.5,7.5,7.5h80.161c4.142,0,7.5-3.358,7.5-7.5c0-4.142-3.358-7.5-7.5-7.5h-16.548V284.016
			c10.5,2.306,21.399,3.532,32.581,3.532c4.142,0,7.5-3.358,7.5-7.5c0-4.142-3.358-7.5-7.5-7.5c-11.225,0-22.134-1.369-32.581-3.931
			v-93.294h62.386c17.451,64.573,76.535,112.226,146.549,112.226c4.142,0,7.5-3.358,7.5-7.5
			C431.839,275.907,428.479,272.548,424.337,272.548z M247.466,40.08V23.532c0-4.705,3.828-8.532,8.532-8.532
			s8.532,3.828,8.532,8.532V40.08H247.466z M183.337,40.08V23.532c0-4.705,3.828-8.532,8.532-8.532c4.704,0,8.532,3.828,8.532,8.532
			V40.08H183.337z M119.207,40.08V23.532c0-4.705,3.828-8.532,8.533-8.532c4.705,0,8.532,3.828,8.532,8.532V40.08H119.207z
			 M95.159,128.258v-16.549c0-4.705,3.828-8.532,8.532-8.532s8.532,3.828,8.532,8.532v16.549H95.159z M168.337,246.905
			c-24.182-17.378-42.482-42.44-51.304-71.582h51.304V246.905z M200.401,497h-17.064v-81.193h17.064V497z M200.401,400.807h-17.064
			V273.074c5.515,2.607,11.211,4.891,17.064,6.828V400.807z M271.514,128.258v-16.549h0c0-4.705,3.828-8.532,8.532-8.532
			c4.704,0,8.532,3.828,8.532,8.532v16.549H271.514z"/>
	</g>
</g>
<g>
</g>
<g>
</g>
<g>
</g>
<g>
</g>
<g>
</g>
<g>
</g>
<g>
</g>
<g>
</g>
<g>
</g>
<g>
</g>
<g>
</g>
<g>
</g>
<g>
</g>
<g>
</g>
<g>
</g>
</svg>
